G04 #@! TF.GenerationSoftware,KiCad,Pcbnew,(5.1.5-0)*
G04 #@! TF.CreationDate,2020-01-06T21:19:35-06:00*
G04 #@! TF.ProjectId,PCB,5043422e-6b69-4636-9164-5f7063625858,rev?*
G04 #@! TF.SameCoordinates,Original*
G04 #@! TF.FileFunction,Copper,L2,Bot*
G04 #@! TF.FilePolarity,Positive*
%FSLAX46Y46*%
G04 Gerber Fmt 4.6, Leading zero omitted, Abs format (unit mm)*
G04 Created by KiCad (PCBNEW (5.1.5-0)) date 2020-01-06 21:19:35*
%MOMM*%
%LPD*%
G04 APERTURE LIST*
%ADD10O,1.700000X1.700000*%
%ADD11R,1.700000X1.700000*%
%ADD12C,0.800000*%
%ADD13C,0.250000*%
G04 APERTURE END LIST*
D10*
X112700000Y-124460000D03*
X110160000Y-124460000D03*
X107620000Y-124460000D03*
X105080000Y-124460000D03*
X102540000Y-124460000D03*
D11*
X100000000Y-124460000D03*
D10*
X207620000Y-121000000D03*
X205080000Y-121000000D03*
X202540000Y-121000000D03*
D11*
X200000000Y-121000000D03*
D10*
X210700000Y-95000000D03*
X208160000Y-95000000D03*
X205620000Y-95000000D03*
X203080000Y-95000000D03*
X200540000Y-95000000D03*
D11*
X198000000Y-95000000D03*
D10*
X210700000Y-85000000D03*
X208160000Y-85000000D03*
X205620000Y-85000000D03*
X203080000Y-85000000D03*
X200540000Y-85000000D03*
D11*
X198000000Y-85000000D03*
D10*
X207620000Y-118000000D03*
X205080000Y-118000000D03*
X202540000Y-118000000D03*
D11*
X200000000Y-118000000D03*
D10*
X207620000Y-76200000D03*
X205080000Y-76200000D03*
X202540000Y-76200000D03*
D11*
X200000000Y-76200000D03*
D10*
X177370000Y-76200000D03*
X174830000Y-76200000D03*
X172290000Y-76200000D03*
X169750000Y-76200000D03*
X167210000Y-76200000D03*
X164670000Y-76200000D03*
X162130000Y-76200000D03*
D11*
X159590000Y-76200000D03*
D10*
X133620000Y-124460000D03*
X131080000Y-124460000D03*
X128540000Y-124460000D03*
D11*
X126000000Y-124460000D03*
D12*
X139770000Y-115770000D03*
X146050000Y-82550000D03*
X142240000Y-85090000D03*
D13*
X135000000Y-118000000D02*
X135000000Y-118000000D01*
X128540000Y-124460000D02*
X135000000Y-118000000D01*
X207620000Y-118000000D02*
X207620000Y-121000000D01*
X200000000Y-118000000D02*
X200000000Y-121000000D01*
X204160000Y-124460000D02*
X207620000Y-121000000D01*
X133620000Y-124460000D02*
X204160000Y-124460000D01*
X210700000Y-81820000D02*
X205080000Y-76200000D01*
X210700000Y-85000000D02*
X210700000Y-81820000D01*
X205080000Y-76200000D02*
X202540000Y-76200000D01*
X205700000Y-90000000D02*
X210700000Y-95000000D01*
X181000000Y-89990000D02*
X181000000Y-90000000D01*
X167210000Y-76200000D02*
X181000000Y-89990000D01*
X181000000Y-90000000D02*
X205700000Y-90000000D01*
X100000000Y-125560000D02*
X100000000Y-124460000D01*
X100440000Y-126000000D02*
X100000000Y-125560000D01*
X127000000Y-126000000D02*
X100440000Y-126000000D01*
X128540000Y-124460000D02*
X127000000Y-126000000D01*
X135000000Y-118000000D02*
X200000000Y-118000000D01*
X121390000Y-115770000D02*
X112700000Y-124460000D01*
X139770000Y-115770000D02*
X121390000Y-115770000D01*
X174830000Y-76200000D02*
X171630000Y-73000000D01*
X177370000Y-76200000D02*
X173170000Y-72000000D01*
X170090000Y-74000000D02*
X157000000Y-74000000D01*
X172290000Y-76200000D02*
X170090000Y-74000000D01*
X157000000Y-74000000D02*
X156000000Y-75000000D01*
X156000000Y-75000000D02*
X156000000Y-78000000D01*
X156000000Y-78000000D02*
X157000000Y-79000000D01*
X157000000Y-79000000D02*
X168000000Y-79000000D01*
X208160000Y-95000000D02*
X204600000Y-91440000D01*
X180440000Y-91440000D02*
X180390000Y-91390000D01*
X204600000Y-91440000D02*
X180440000Y-91440000D01*
X168000000Y-79000000D02*
X180390000Y-91390000D01*
X156870000Y-73000000D02*
X155600000Y-73000000D01*
X156870000Y-73000000D02*
X156000000Y-73000000D01*
X171630000Y-73000000D02*
X156870000Y-73000000D01*
X155600000Y-73000000D02*
X153670000Y-74930000D01*
X153670000Y-80950000D02*
X110160000Y-124460000D01*
X153670000Y-74930000D02*
X153670000Y-80950000D01*
X155820000Y-72000000D02*
X154060000Y-72000000D01*
X155820000Y-72000000D02*
X155000000Y-72000000D01*
X173170000Y-72000000D02*
X155820000Y-72000000D01*
X154060000Y-72000000D02*
X151130000Y-74930000D01*
X151130000Y-80950000D02*
X107620000Y-124460000D01*
X151130000Y-74930000D02*
X151130000Y-80950000D01*
X146050000Y-83490000D02*
X105080000Y-124460000D01*
X146050000Y-82550000D02*
X146050000Y-83490000D01*
X139700000Y-87300000D02*
X102540000Y-124460000D01*
X140030000Y-87300000D02*
X142240000Y-85090000D01*
X139700000Y-87300000D02*
X140030000Y-87300000D01*
X200000000Y-76840000D02*
X200000000Y-76200000D01*
X208160000Y-85000000D02*
X200000000Y-76840000D01*
X213360000Y-81940000D02*
X207620000Y-76200000D01*
X213360000Y-86360000D02*
X213360000Y-81940000D01*
X212090000Y-87630000D02*
X213360000Y-86360000D01*
X200540000Y-85000000D02*
X203170000Y-87630000D01*
X203170000Y-87630000D02*
X212090000Y-87630000D01*
X181550000Y-88000000D02*
X169750000Y-76200000D01*
X182450000Y-88900000D02*
X181550000Y-88000000D01*
X203540000Y-98000000D02*
X213000000Y-98000000D01*
X200540000Y-95000000D02*
X203540000Y-98000000D01*
X213000000Y-98000000D02*
X214000000Y-97000000D01*
X214000000Y-97000000D02*
X214000000Y-95000000D01*
X214000000Y-95000000D02*
X207900000Y-88900000D01*
X207900000Y-88900000D02*
X182450000Y-88900000D01*
M02*
