M48
; DRILL file {KiCad (5.1.5-0)} date Monday, January 06, 2020 at 09:19:40 PM
; FORMAT={-:-/ absolute / inch / decimal}
; #@! TF.CreationDate,2020-01-06T21:19:40-06:00
; #@! TF.GenerationSoftware,Kicad,Pcbnew,(5.1.5-0)
; #@! TF.FileFunction,Plated,1,2,PTH
FMAT,2
INCH
T1C0.0157
T2C0.0394
%
G90
G05
T1
X5.5028Y-4.5579
X5.6Y-3.35
X5.75Y-3.25
T2
X3.937Y-4.9
X4.037Y-4.9
X4.137Y-4.9
X4.237Y-4.9
X4.337Y-4.9
X4.437Y-4.9
X7.7953Y-3.7402
X7.8953Y-3.7402
X7.9953Y-3.7402
X8.0953Y-3.7402
X8.1953Y-3.7402
X8.2953Y-3.7402
X7.7953Y-3.3465
X7.8953Y-3.3465
X7.9953Y-3.3465
X8.0953Y-3.3465
X8.1953Y-3.3465
X8.2953Y-3.3465
X4.9606Y-4.9
X5.0606Y-4.9
X5.1606Y-4.9
X5.2606Y-4.9
X7.874Y-3.0
X7.974Y-3.0
X8.074Y-3.0
X8.174Y-3.0
X7.874Y-4.7638
X7.974Y-4.7638
X8.074Y-4.7638
X8.174Y-4.7638
X7.874Y-4.6457
X7.974Y-4.6457
X8.074Y-4.6457
X8.174Y-4.6457
X6.2831Y-3.0
X6.3831Y-3.0
X6.4831Y-3.0
X6.5831Y-3.0
X6.6831Y-3.0
X6.7831Y-3.0
X6.8831Y-3.0
X6.9831Y-3.0
T0
M30
