G04 #@! TF.GenerationSoftware,KiCad,Pcbnew,(5.1.5-0)*
G04 #@! TF.CreationDate,2020-01-06T21:19:35-06:00*
G04 #@! TF.ProjectId,PCB,5043422e-6b69-4636-9164-5f7063625858,rev?*
G04 #@! TF.SameCoordinates,Original*
G04 #@! TF.FileFunction,Legend,Top*
G04 #@! TF.FilePolarity,Positive*
%FSLAX46Y46*%
G04 Gerber Fmt 4.6, Leading zero omitted, Abs format (unit mm)*
G04 Created by KiCad (PCBNEW (5.1.5-0)) date 2020-01-06 21:19:35*
%MOMM*%
%LPD*%
G04 APERTURE LIST*
%ADD10C,0.300000*%
%ADD11C,0.600000*%
%ADD12C,0.150000*%
%ADD13C,0.120000*%
G04 APERTURE END LIST*
D10*
X119357142Y-81892857D02*
X119571428Y-81964285D01*
X119642857Y-82035714D01*
X119714285Y-82178571D01*
X119714285Y-82392857D01*
X119642857Y-82535714D01*
X119571428Y-82607142D01*
X119428571Y-82678571D01*
X118857142Y-82678571D01*
X118857142Y-81178571D01*
X119357142Y-81178571D01*
X119500000Y-81250000D01*
X119571428Y-81321428D01*
X119642857Y-81464285D01*
X119642857Y-81607142D01*
X119571428Y-81750000D01*
X119500000Y-81821428D01*
X119357142Y-81892857D01*
X118857142Y-81892857D01*
X120928571Y-82607142D02*
X120785714Y-82678571D01*
X120500000Y-82678571D01*
X120357142Y-82607142D01*
X120285714Y-82464285D01*
X120285714Y-81892857D01*
X120357142Y-81750000D01*
X120500000Y-81678571D01*
X120785714Y-81678571D01*
X120928571Y-81750000D01*
X121000000Y-81892857D01*
X121000000Y-82035714D01*
X120285714Y-82178571D01*
X121428571Y-81678571D02*
X122000000Y-81678571D01*
X121642857Y-81178571D02*
X121642857Y-82464285D01*
X121714285Y-82607142D01*
X121857142Y-82678571D01*
X122000000Y-82678571D01*
X123142857Y-82678571D02*
X123142857Y-81892857D01*
X123071428Y-81750000D01*
X122928571Y-81678571D01*
X122642857Y-81678571D01*
X122500000Y-81750000D01*
X123142857Y-82607142D02*
X123000000Y-82678571D01*
X122642857Y-82678571D01*
X122500000Y-82607142D01*
X122428571Y-82464285D01*
X122428571Y-82321428D01*
X122500000Y-82178571D01*
X122642857Y-82107142D01*
X123000000Y-82107142D01*
X123142857Y-82035714D01*
D11*
X115142857Y-77357142D02*
X115714285Y-77357142D01*
X116000000Y-77500000D01*
X116285714Y-77785714D01*
X116428571Y-78357142D01*
X116428571Y-79357142D01*
X116285714Y-79928571D01*
X116000000Y-80214285D01*
X115714285Y-80357142D01*
X115142857Y-80357142D01*
X114857142Y-80214285D01*
X114571428Y-79928571D01*
X114428571Y-79357142D01*
X114428571Y-78357142D01*
X114571428Y-77785714D01*
X114857142Y-77500000D01*
X115142857Y-77357142D01*
X117714285Y-78357142D02*
X117714285Y-81357142D01*
X117714285Y-78500000D02*
X118000000Y-78357142D01*
X118571428Y-78357142D01*
X118857142Y-78500000D01*
X119000000Y-78642857D01*
X119142857Y-78928571D01*
X119142857Y-79785714D01*
X119000000Y-80071428D01*
X118857142Y-80214285D01*
X118571428Y-80357142D01*
X118000000Y-80357142D01*
X117714285Y-80214285D01*
X121571428Y-80214285D02*
X121285714Y-80357142D01*
X120714285Y-80357142D01*
X120428571Y-80214285D01*
X120285714Y-79928571D01*
X120285714Y-78785714D01*
X120428571Y-78500000D01*
X120714285Y-78357142D01*
X121285714Y-78357142D01*
X121571428Y-78500000D01*
X121714285Y-78785714D01*
X121714285Y-79071428D01*
X120285714Y-79357142D01*
X123000000Y-78357142D02*
X123000000Y-80357142D01*
X123000000Y-78642857D02*
X123142857Y-78500000D01*
X123428571Y-78357142D01*
X123857142Y-78357142D01*
X124142857Y-78500000D01*
X124285714Y-78785714D01*
X124285714Y-80357142D01*
X125428571Y-77357142D02*
X127428571Y-80357142D01*
X127428571Y-77357142D02*
X125428571Y-80357142D01*
X128571428Y-80357142D02*
X128571428Y-77357142D01*
X129714285Y-77357142D01*
X130000000Y-77500000D01*
X130142857Y-77642857D01*
X130285714Y-77928571D01*
X130285714Y-78357142D01*
X130142857Y-78642857D01*
X130000000Y-78785714D01*
X129714285Y-78928571D01*
X128571428Y-78928571D01*
X132571428Y-78785714D02*
X133000000Y-78928571D01*
X133142857Y-79071428D01*
X133285714Y-79357142D01*
X133285714Y-79785714D01*
X133142857Y-80071428D01*
X133000000Y-80214285D01*
X132714285Y-80357142D01*
X131571428Y-80357142D01*
X131571428Y-77357142D01*
X132571428Y-77357142D01*
X132857142Y-77500000D01*
X133000000Y-77642857D01*
X133142857Y-77928571D01*
X133142857Y-78214285D01*
X133000000Y-78500000D01*
X132857142Y-78642857D01*
X132571428Y-78785714D01*
X131571428Y-78785714D01*
X134571428Y-80357142D02*
X134571428Y-77357142D01*
X135571428Y-79500000D01*
X136571428Y-77357142D01*
X136571428Y-80357142D01*
X137857142Y-80214285D02*
X138285714Y-80357142D01*
X139000000Y-80357142D01*
X139285714Y-80214285D01*
X139428571Y-80071428D01*
X139571428Y-79785714D01*
X139571428Y-79500000D01*
X139428571Y-79214285D01*
X139285714Y-79071428D01*
X139000000Y-78928571D01*
X138428571Y-78785714D01*
X138142857Y-78642857D01*
X138000000Y-78500000D01*
X137857142Y-78214285D01*
X137857142Y-77928571D01*
X138000000Y-77642857D01*
X138142857Y-77500000D01*
X138428571Y-77357142D01*
X139142857Y-77357142D01*
X139571428Y-77500000D01*
D12*
X202404761Y-115452380D02*
X202071428Y-114976190D01*
X201833333Y-115452380D02*
X201833333Y-114452380D01*
X202214285Y-114452380D01*
X202309523Y-114500000D01*
X202357142Y-114547619D01*
X202404761Y-114642857D01*
X202404761Y-114785714D01*
X202357142Y-114880952D01*
X202309523Y-114928571D01*
X202214285Y-114976190D01*
X201833333Y-114976190D01*
X202785714Y-115404761D02*
X202928571Y-115452380D01*
X203166666Y-115452380D01*
X203261904Y-115404761D01*
X203309523Y-115357142D01*
X203357142Y-115261904D01*
X203357142Y-115166666D01*
X203309523Y-115071428D01*
X203261904Y-115023809D01*
X203166666Y-114976190D01*
X202976190Y-114928571D01*
X202880952Y-114880952D01*
X202833333Y-114833333D01*
X202785714Y-114738095D01*
X202785714Y-114642857D01*
X202833333Y-114547619D01*
X202880952Y-114500000D01*
X202976190Y-114452380D01*
X203214285Y-114452380D01*
X203357142Y-114500000D01*
X204214285Y-114785714D02*
X204214285Y-115452380D01*
X203976190Y-114404761D02*
X203738095Y-115119047D01*
X204357142Y-115119047D01*
X204880952Y-114880952D02*
X204785714Y-114833333D01*
X204738095Y-114785714D01*
X204690476Y-114690476D01*
X204690476Y-114642857D01*
X204738095Y-114547619D01*
X204785714Y-114500000D01*
X204880952Y-114452380D01*
X205071428Y-114452380D01*
X205166666Y-114500000D01*
X205214285Y-114547619D01*
X205261904Y-114642857D01*
X205261904Y-114690476D01*
X205214285Y-114785714D01*
X205166666Y-114833333D01*
X205071428Y-114880952D01*
X204880952Y-114880952D01*
X204785714Y-114928571D01*
X204738095Y-114976190D01*
X204690476Y-115071428D01*
X204690476Y-115261904D01*
X204738095Y-115357142D01*
X204785714Y-115404761D01*
X204880952Y-115452380D01*
X205071428Y-115452380D01*
X205166666Y-115404761D01*
X205214285Y-115357142D01*
X205261904Y-115261904D01*
X205261904Y-115071428D01*
X205214285Y-114976190D01*
X205166666Y-114928571D01*
X205071428Y-114880952D01*
X206166666Y-114452380D02*
X205690476Y-114452380D01*
X205642857Y-114928571D01*
X205690476Y-114880952D01*
X205785714Y-114833333D01*
X206023809Y-114833333D01*
X206119047Y-114880952D01*
X206166666Y-114928571D01*
X206214285Y-115023809D01*
X206214285Y-115261904D01*
X206166666Y-115357142D01*
X206119047Y-115404761D01*
X206023809Y-115452380D01*
X205785714Y-115452380D01*
X205690476Y-115404761D01*
X205642857Y-115357142D01*
X167095238Y-78500000D02*
X167000000Y-78452380D01*
X166857142Y-78452380D01*
X166714285Y-78500000D01*
X166619047Y-78595238D01*
X166571428Y-78690476D01*
X166523809Y-78880952D01*
X166523809Y-79023809D01*
X166571428Y-79214285D01*
X166619047Y-79309523D01*
X166714285Y-79404761D01*
X166857142Y-79452380D01*
X166952380Y-79452380D01*
X167095238Y-79404761D01*
X167142857Y-79357142D01*
X167142857Y-79023809D01*
X166952380Y-79023809D01*
X168142857Y-79357142D02*
X168095238Y-79404761D01*
X167952380Y-79452380D01*
X167857142Y-79452380D01*
X167714285Y-79404761D01*
X167619047Y-79309523D01*
X167571428Y-79214285D01*
X167523809Y-79023809D01*
X167523809Y-78880952D01*
X167571428Y-78690476D01*
X167619047Y-78595238D01*
X167714285Y-78500000D01*
X167857142Y-78452380D01*
X167952380Y-78452380D01*
X168095238Y-78500000D01*
X168142857Y-78547619D01*
X168571428Y-79071428D02*
X169333333Y-79071428D01*
X169809523Y-79452380D02*
X169809523Y-78452380D01*
X170142857Y-79166666D01*
X170476190Y-78452380D01*
X170476190Y-79452380D01*
X171380952Y-78785714D02*
X171380952Y-79452380D01*
X171142857Y-78404761D02*
X170904761Y-79119047D01*
X171523809Y-79119047D01*
X128095238Y-121500000D02*
X128000000Y-121452380D01*
X127857142Y-121452380D01*
X127714285Y-121500000D01*
X127619047Y-121595238D01*
X127571428Y-121690476D01*
X127523809Y-121880952D01*
X127523809Y-122023809D01*
X127571428Y-122214285D01*
X127619047Y-122309523D01*
X127714285Y-122404761D01*
X127857142Y-122452380D01*
X127952380Y-122452380D01*
X128095238Y-122404761D01*
X128142857Y-122357142D01*
X128142857Y-122023809D01*
X127952380Y-122023809D01*
X129142857Y-122357142D02*
X129095238Y-122404761D01*
X128952380Y-122452380D01*
X128857142Y-122452380D01*
X128714285Y-122404761D01*
X128619047Y-122309523D01*
X128571428Y-122214285D01*
X128523809Y-122023809D01*
X128523809Y-121880952D01*
X128571428Y-121690476D01*
X128619047Y-121595238D01*
X128714285Y-121500000D01*
X128857142Y-121452380D01*
X128952380Y-121452380D01*
X129095238Y-121500000D01*
X129142857Y-121547619D01*
X129571428Y-122071428D02*
X130333333Y-122071428D01*
X130809523Y-122452380D02*
X130809523Y-121452380D01*
X131142857Y-122166666D01*
X131476190Y-121452380D01*
X131476190Y-122452380D01*
X132380952Y-121785714D02*
X132380952Y-122452380D01*
X132142857Y-121404761D02*
X131904761Y-122119047D01*
X132523809Y-122119047D01*
X202404761Y-79452380D02*
X202071428Y-78976190D01*
X201833333Y-79452380D02*
X201833333Y-78452380D01*
X202214285Y-78452380D01*
X202309523Y-78500000D01*
X202357142Y-78547619D01*
X202404761Y-78642857D01*
X202404761Y-78785714D01*
X202357142Y-78880952D01*
X202309523Y-78928571D01*
X202214285Y-78976190D01*
X201833333Y-78976190D01*
X202785714Y-79404761D02*
X202928571Y-79452380D01*
X203166666Y-79452380D01*
X203261904Y-79404761D01*
X203309523Y-79357142D01*
X203357142Y-79261904D01*
X203357142Y-79166666D01*
X203309523Y-79071428D01*
X203261904Y-79023809D01*
X203166666Y-78976190D01*
X202976190Y-78928571D01*
X202880952Y-78880952D01*
X202833333Y-78833333D01*
X202785714Y-78738095D01*
X202785714Y-78642857D01*
X202833333Y-78547619D01*
X202880952Y-78500000D01*
X202976190Y-78452380D01*
X203214285Y-78452380D01*
X203357142Y-78500000D01*
X204214285Y-78785714D02*
X204214285Y-79452380D01*
X203976190Y-78404761D02*
X203738095Y-79119047D01*
X204357142Y-79119047D01*
X204880952Y-78880952D02*
X204785714Y-78833333D01*
X204738095Y-78785714D01*
X204690476Y-78690476D01*
X204690476Y-78642857D01*
X204738095Y-78547619D01*
X204785714Y-78500000D01*
X204880952Y-78452380D01*
X205071428Y-78452380D01*
X205166666Y-78500000D01*
X205214285Y-78547619D01*
X205261904Y-78642857D01*
X205261904Y-78690476D01*
X205214285Y-78785714D01*
X205166666Y-78833333D01*
X205071428Y-78880952D01*
X204880952Y-78880952D01*
X204785714Y-78928571D01*
X204738095Y-78976190D01*
X204690476Y-79071428D01*
X204690476Y-79261904D01*
X204738095Y-79357142D01*
X204785714Y-79404761D01*
X204880952Y-79452380D01*
X205071428Y-79452380D01*
X205166666Y-79404761D01*
X205214285Y-79357142D01*
X205261904Y-79261904D01*
X205261904Y-79071428D01*
X205214285Y-78976190D01*
X205166666Y-78928571D01*
X205071428Y-78880952D01*
X206166666Y-78452380D02*
X205690476Y-78452380D01*
X205642857Y-78928571D01*
X205690476Y-78880952D01*
X205785714Y-78833333D01*
X206023809Y-78833333D01*
X206119047Y-78880952D01*
X206166666Y-78928571D01*
X206214285Y-79023809D01*
X206214285Y-79261904D01*
X206166666Y-79357142D01*
X206119047Y-79404761D01*
X206023809Y-79452380D01*
X205785714Y-79452380D01*
X205690476Y-79404761D01*
X205642857Y-79357142D01*
D13*
X198670000Y-122330000D02*
X198670000Y-121000000D01*
X200000000Y-122330000D02*
X198670000Y-122330000D01*
X201270000Y-122330000D02*
X201270000Y-119670000D01*
X201270000Y-119670000D02*
X208950000Y-119670000D01*
X201270000Y-122330000D02*
X208950000Y-122330000D01*
X208950000Y-122330000D02*
X208950000Y-119670000D01*
X198670000Y-119330000D02*
X198670000Y-118000000D01*
X200000000Y-119330000D02*
X198670000Y-119330000D01*
X201270000Y-119330000D02*
X201270000Y-116670000D01*
X201270000Y-116670000D02*
X208950000Y-116670000D01*
X201270000Y-119330000D02*
X208950000Y-119330000D01*
X208950000Y-119330000D02*
X208950000Y-116670000D01*
X198670000Y-77530000D02*
X198670000Y-76200000D01*
X200000000Y-77530000D02*
X198670000Y-77530000D01*
X201270000Y-77530000D02*
X201270000Y-74870000D01*
X201270000Y-74870000D02*
X208950000Y-74870000D01*
X201270000Y-77530000D02*
X208950000Y-77530000D01*
X208950000Y-77530000D02*
X208950000Y-74870000D01*
X158260000Y-77530000D02*
X158260000Y-76200000D01*
X159590000Y-77530000D02*
X158260000Y-77530000D01*
X160860000Y-77530000D02*
X160860000Y-74870000D01*
X160860000Y-74870000D02*
X178700000Y-74870000D01*
X160860000Y-77530000D02*
X178700000Y-77530000D01*
X178700000Y-77530000D02*
X178700000Y-74870000D01*
X124670000Y-125790000D02*
X124670000Y-124460000D01*
X126000000Y-125790000D02*
X124670000Y-125790000D01*
X127270000Y-125790000D02*
X127270000Y-123130000D01*
X127270000Y-123130000D02*
X134950000Y-123130000D01*
X127270000Y-125790000D02*
X134950000Y-125790000D01*
X134950000Y-125790000D02*
X134950000Y-123130000D01*
D12*
X197122380Y-121142857D02*
X197122380Y-121619047D01*
X197598571Y-121666666D01*
X197550952Y-121619047D01*
X197503333Y-121523809D01*
X197503333Y-121285714D01*
X197550952Y-121190476D01*
X197598571Y-121142857D01*
X197693809Y-121095238D01*
X197931904Y-121095238D01*
X198027142Y-121142857D01*
X198074761Y-121190476D01*
X198122380Y-121285714D01*
X198122380Y-121523809D01*
X198074761Y-121619047D01*
X198027142Y-121666666D01*
X197455714Y-120761904D02*
X198122380Y-120523809D01*
X197455714Y-120285714D01*
X197122380Y-118142857D02*
X197122380Y-118619047D01*
X197598571Y-118666666D01*
X197550952Y-118619047D01*
X197503333Y-118523809D01*
X197503333Y-118285714D01*
X197550952Y-118190476D01*
X197598571Y-118142857D01*
X197693809Y-118095238D01*
X197931904Y-118095238D01*
X198027142Y-118142857D01*
X198074761Y-118190476D01*
X198122380Y-118285714D01*
X198122380Y-118523809D01*
X198074761Y-118619047D01*
X198027142Y-118666666D01*
X197455714Y-117761904D02*
X198122380Y-117523809D01*
X197455714Y-117285714D01*
X157712380Y-76390476D02*
X157712380Y-76961904D01*
X157712380Y-76676190D02*
X156712380Y-76676190D01*
X156855238Y-76771428D01*
X156950476Y-76866666D01*
X156998095Y-76961904D01*
X157045714Y-75533333D02*
X157712380Y-75533333D01*
X156664761Y-75771428D02*
X157379047Y-76009523D01*
X157379047Y-75390476D01*
X123122380Y-125507619D02*
X123122380Y-124888571D01*
X123503333Y-125221904D01*
X123503333Y-125079047D01*
X123550952Y-124983809D01*
X123598571Y-124936190D01*
X123693809Y-124888571D01*
X123931904Y-124888571D01*
X124027142Y-124936190D01*
X124074761Y-124983809D01*
X124122380Y-125079047D01*
X124122380Y-125364761D01*
X124074761Y-125460000D01*
X124027142Y-125507619D01*
X124027142Y-124460000D02*
X124074761Y-124412380D01*
X124122380Y-124460000D01*
X124074761Y-124507619D01*
X124027142Y-124460000D01*
X124122380Y-124460000D01*
X123122380Y-124079047D02*
X123122380Y-123460000D01*
X123503333Y-123793333D01*
X123503333Y-123650476D01*
X123550952Y-123555238D01*
X123598571Y-123507619D01*
X123693809Y-123460000D01*
X123931904Y-123460000D01*
X124027142Y-123507619D01*
X124074761Y-123555238D01*
X124122380Y-123650476D01*
X124122380Y-123936190D01*
X124074761Y-124031428D01*
X124027142Y-124079047D01*
M02*
