G04 #@! TF.GenerationSoftware,KiCad,Pcbnew,(5.1.5-0)*
G04 #@! TF.CreationDate,2020-01-06T21:19:36-06:00*
G04 #@! TF.ProjectId,PCB,5043422e-6b69-4636-9164-5f7063625858,rev?*
G04 #@! TF.SameCoordinates,Original*
G04 #@! TF.FileFunction,Soldermask,Top*
G04 #@! TF.FilePolarity,Negative*
%FSLAX46Y46*%
G04 Gerber Fmt 4.6, Leading zero omitted, Abs format (unit mm)*
G04 Created by KiCad (PCBNEW (5.1.5-0)) date 2020-01-06 21:19:36*
%MOMM*%
%LPD*%
G04 APERTURE LIST*
%ADD10C,0.100000*%
G04 APERTURE END LIST*
D10*
G36*
X133733512Y-123563927D02*
G01*
X133882812Y-123593624D01*
X134046784Y-123661544D01*
X134194354Y-123760147D01*
X134319853Y-123885646D01*
X134418456Y-124033216D01*
X134486376Y-124197188D01*
X134521000Y-124371259D01*
X134521000Y-124548741D01*
X134486376Y-124722812D01*
X134418456Y-124886784D01*
X134319853Y-125034354D01*
X134194354Y-125159853D01*
X134046784Y-125258456D01*
X133882812Y-125326376D01*
X133733512Y-125356073D01*
X133708742Y-125361000D01*
X133531258Y-125361000D01*
X133506488Y-125356073D01*
X133357188Y-125326376D01*
X133193216Y-125258456D01*
X133045646Y-125159853D01*
X132920147Y-125034354D01*
X132821544Y-124886784D01*
X132753624Y-124722812D01*
X132719000Y-124548741D01*
X132719000Y-124371259D01*
X132753624Y-124197188D01*
X132821544Y-124033216D01*
X132920147Y-123885646D01*
X133045646Y-123760147D01*
X133193216Y-123661544D01*
X133357188Y-123593624D01*
X133506488Y-123563927D01*
X133531258Y-123559000D01*
X133708742Y-123559000D01*
X133733512Y-123563927D01*
G37*
G36*
X131193512Y-123563927D02*
G01*
X131342812Y-123593624D01*
X131506784Y-123661544D01*
X131654354Y-123760147D01*
X131779853Y-123885646D01*
X131878456Y-124033216D01*
X131946376Y-124197188D01*
X131981000Y-124371259D01*
X131981000Y-124548741D01*
X131946376Y-124722812D01*
X131878456Y-124886784D01*
X131779853Y-125034354D01*
X131654354Y-125159853D01*
X131506784Y-125258456D01*
X131342812Y-125326376D01*
X131193512Y-125356073D01*
X131168742Y-125361000D01*
X130991258Y-125361000D01*
X130966488Y-125356073D01*
X130817188Y-125326376D01*
X130653216Y-125258456D01*
X130505646Y-125159853D01*
X130380147Y-125034354D01*
X130281544Y-124886784D01*
X130213624Y-124722812D01*
X130179000Y-124548741D01*
X130179000Y-124371259D01*
X130213624Y-124197188D01*
X130281544Y-124033216D01*
X130380147Y-123885646D01*
X130505646Y-123760147D01*
X130653216Y-123661544D01*
X130817188Y-123593624D01*
X130966488Y-123563927D01*
X130991258Y-123559000D01*
X131168742Y-123559000D01*
X131193512Y-123563927D01*
G37*
G36*
X128653512Y-123563927D02*
G01*
X128802812Y-123593624D01*
X128966784Y-123661544D01*
X129114354Y-123760147D01*
X129239853Y-123885646D01*
X129338456Y-124033216D01*
X129406376Y-124197188D01*
X129441000Y-124371259D01*
X129441000Y-124548741D01*
X129406376Y-124722812D01*
X129338456Y-124886784D01*
X129239853Y-125034354D01*
X129114354Y-125159853D01*
X128966784Y-125258456D01*
X128802812Y-125326376D01*
X128653512Y-125356073D01*
X128628742Y-125361000D01*
X128451258Y-125361000D01*
X128426488Y-125356073D01*
X128277188Y-125326376D01*
X128113216Y-125258456D01*
X127965646Y-125159853D01*
X127840147Y-125034354D01*
X127741544Y-124886784D01*
X127673624Y-124722812D01*
X127639000Y-124548741D01*
X127639000Y-124371259D01*
X127673624Y-124197188D01*
X127741544Y-124033216D01*
X127840147Y-123885646D01*
X127965646Y-123760147D01*
X128113216Y-123661544D01*
X128277188Y-123593624D01*
X128426488Y-123563927D01*
X128451258Y-123559000D01*
X128628742Y-123559000D01*
X128653512Y-123563927D01*
G37*
G36*
X126901000Y-125361000D02*
G01*
X125099000Y-125361000D01*
X125099000Y-123559000D01*
X126901000Y-123559000D01*
X126901000Y-125361000D01*
G37*
G36*
X112813512Y-123563927D02*
G01*
X112962812Y-123593624D01*
X113126784Y-123661544D01*
X113274354Y-123760147D01*
X113399853Y-123885646D01*
X113498456Y-124033216D01*
X113566376Y-124197188D01*
X113601000Y-124371259D01*
X113601000Y-124548741D01*
X113566376Y-124722812D01*
X113498456Y-124886784D01*
X113399853Y-125034354D01*
X113274354Y-125159853D01*
X113126784Y-125258456D01*
X112962812Y-125326376D01*
X112813512Y-125356073D01*
X112788742Y-125361000D01*
X112611258Y-125361000D01*
X112586488Y-125356073D01*
X112437188Y-125326376D01*
X112273216Y-125258456D01*
X112125646Y-125159853D01*
X112000147Y-125034354D01*
X111901544Y-124886784D01*
X111833624Y-124722812D01*
X111799000Y-124548741D01*
X111799000Y-124371259D01*
X111833624Y-124197188D01*
X111901544Y-124033216D01*
X112000147Y-123885646D01*
X112125646Y-123760147D01*
X112273216Y-123661544D01*
X112437188Y-123593624D01*
X112586488Y-123563927D01*
X112611258Y-123559000D01*
X112788742Y-123559000D01*
X112813512Y-123563927D01*
G37*
G36*
X110273512Y-123563927D02*
G01*
X110422812Y-123593624D01*
X110586784Y-123661544D01*
X110734354Y-123760147D01*
X110859853Y-123885646D01*
X110958456Y-124033216D01*
X111026376Y-124197188D01*
X111061000Y-124371259D01*
X111061000Y-124548741D01*
X111026376Y-124722812D01*
X110958456Y-124886784D01*
X110859853Y-125034354D01*
X110734354Y-125159853D01*
X110586784Y-125258456D01*
X110422812Y-125326376D01*
X110273512Y-125356073D01*
X110248742Y-125361000D01*
X110071258Y-125361000D01*
X110046488Y-125356073D01*
X109897188Y-125326376D01*
X109733216Y-125258456D01*
X109585646Y-125159853D01*
X109460147Y-125034354D01*
X109361544Y-124886784D01*
X109293624Y-124722812D01*
X109259000Y-124548741D01*
X109259000Y-124371259D01*
X109293624Y-124197188D01*
X109361544Y-124033216D01*
X109460147Y-123885646D01*
X109585646Y-123760147D01*
X109733216Y-123661544D01*
X109897188Y-123593624D01*
X110046488Y-123563927D01*
X110071258Y-123559000D01*
X110248742Y-123559000D01*
X110273512Y-123563927D01*
G37*
G36*
X107733512Y-123563927D02*
G01*
X107882812Y-123593624D01*
X108046784Y-123661544D01*
X108194354Y-123760147D01*
X108319853Y-123885646D01*
X108418456Y-124033216D01*
X108486376Y-124197188D01*
X108521000Y-124371259D01*
X108521000Y-124548741D01*
X108486376Y-124722812D01*
X108418456Y-124886784D01*
X108319853Y-125034354D01*
X108194354Y-125159853D01*
X108046784Y-125258456D01*
X107882812Y-125326376D01*
X107733512Y-125356073D01*
X107708742Y-125361000D01*
X107531258Y-125361000D01*
X107506488Y-125356073D01*
X107357188Y-125326376D01*
X107193216Y-125258456D01*
X107045646Y-125159853D01*
X106920147Y-125034354D01*
X106821544Y-124886784D01*
X106753624Y-124722812D01*
X106719000Y-124548741D01*
X106719000Y-124371259D01*
X106753624Y-124197188D01*
X106821544Y-124033216D01*
X106920147Y-123885646D01*
X107045646Y-123760147D01*
X107193216Y-123661544D01*
X107357188Y-123593624D01*
X107506488Y-123563927D01*
X107531258Y-123559000D01*
X107708742Y-123559000D01*
X107733512Y-123563927D01*
G37*
G36*
X105193512Y-123563927D02*
G01*
X105342812Y-123593624D01*
X105506784Y-123661544D01*
X105654354Y-123760147D01*
X105779853Y-123885646D01*
X105878456Y-124033216D01*
X105946376Y-124197188D01*
X105981000Y-124371259D01*
X105981000Y-124548741D01*
X105946376Y-124722812D01*
X105878456Y-124886784D01*
X105779853Y-125034354D01*
X105654354Y-125159853D01*
X105506784Y-125258456D01*
X105342812Y-125326376D01*
X105193512Y-125356073D01*
X105168742Y-125361000D01*
X104991258Y-125361000D01*
X104966488Y-125356073D01*
X104817188Y-125326376D01*
X104653216Y-125258456D01*
X104505646Y-125159853D01*
X104380147Y-125034354D01*
X104281544Y-124886784D01*
X104213624Y-124722812D01*
X104179000Y-124548741D01*
X104179000Y-124371259D01*
X104213624Y-124197188D01*
X104281544Y-124033216D01*
X104380147Y-123885646D01*
X104505646Y-123760147D01*
X104653216Y-123661544D01*
X104817188Y-123593624D01*
X104966488Y-123563927D01*
X104991258Y-123559000D01*
X105168742Y-123559000D01*
X105193512Y-123563927D01*
G37*
G36*
X102653512Y-123563927D02*
G01*
X102802812Y-123593624D01*
X102966784Y-123661544D01*
X103114354Y-123760147D01*
X103239853Y-123885646D01*
X103338456Y-124033216D01*
X103406376Y-124197188D01*
X103441000Y-124371259D01*
X103441000Y-124548741D01*
X103406376Y-124722812D01*
X103338456Y-124886784D01*
X103239853Y-125034354D01*
X103114354Y-125159853D01*
X102966784Y-125258456D01*
X102802812Y-125326376D01*
X102653512Y-125356073D01*
X102628742Y-125361000D01*
X102451258Y-125361000D01*
X102426488Y-125356073D01*
X102277188Y-125326376D01*
X102113216Y-125258456D01*
X101965646Y-125159853D01*
X101840147Y-125034354D01*
X101741544Y-124886784D01*
X101673624Y-124722812D01*
X101639000Y-124548741D01*
X101639000Y-124371259D01*
X101673624Y-124197188D01*
X101741544Y-124033216D01*
X101840147Y-123885646D01*
X101965646Y-123760147D01*
X102113216Y-123661544D01*
X102277188Y-123593624D01*
X102426488Y-123563927D01*
X102451258Y-123559000D01*
X102628742Y-123559000D01*
X102653512Y-123563927D01*
G37*
G36*
X100901000Y-125361000D02*
G01*
X99099000Y-125361000D01*
X99099000Y-123559000D01*
X100901000Y-123559000D01*
X100901000Y-125361000D01*
G37*
G36*
X207733512Y-120103927D02*
G01*
X207882812Y-120133624D01*
X208046784Y-120201544D01*
X208194354Y-120300147D01*
X208319853Y-120425646D01*
X208418456Y-120573216D01*
X208486376Y-120737188D01*
X208521000Y-120911259D01*
X208521000Y-121088741D01*
X208486376Y-121262812D01*
X208418456Y-121426784D01*
X208319853Y-121574354D01*
X208194354Y-121699853D01*
X208046784Y-121798456D01*
X207882812Y-121866376D01*
X207733512Y-121896073D01*
X207708742Y-121901000D01*
X207531258Y-121901000D01*
X207506488Y-121896073D01*
X207357188Y-121866376D01*
X207193216Y-121798456D01*
X207045646Y-121699853D01*
X206920147Y-121574354D01*
X206821544Y-121426784D01*
X206753624Y-121262812D01*
X206719000Y-121088741D01*
X206719000Y-120911259D01*
X206753624Y-120737188D01*
X206821544Y-120573216D01*
X206920147Y-120425646D01*
X207045646Y-120300147D01*
X207193216Y-120201544D01*
X207357188Y-120133624D01*
X207506488Y-120103927D01*
X207531258Y-120099000D01*
X207708742Y-120099000D01*
X207733512Y-120103927D01*
G37*
G36*
X205193512Y-120103927D02*
G01*
X205342812Y-120133624D01*
X205506784Y-120201544D01*
X205654354Y-120300147D01*
X205779853Y-120425646D01*
X205878456Y-120573216D01*
X205946376Y-120737188D01*
X205981000Y-120911259D01*
X205981000Y-121088741D01*
X205946376Y-121262812D01*
X205878456Y-121426784D01*
X205779853Y-121574354D01*
X205654354Y-121699853D01*
X205506784Y-121798456D01*
X205342812Y-121866376D01*
X205193512Y-121896073D01*
X205168742Y-121901000D01*
X204991258Y-121901000D01*
X204966488Y-121896073D01*
X204817188Y-121866376D01*
X204653216Y-121798456D01*
X204505646Y-121699853D01*
X204380147Y-121574354D01*
X204281544Y-121426784D01*
X204213624Y-121262812D01*
X204179000Y-121088741D01*
X204179000Y-120911259D01*
X204213624Y-120737188D01*
X204281544Y-120573216D01*
X204380147Y-120425646D01*
X204505646Y-120300147D01*
X204653216Y-120201544D01*
X204817188Y-120133624D01*
X204966488Y-120103927D01*
X204991258Y-120099000D01*
X205168742Y-120099000D01*
X205193512Y-120103927D01*
G37*
G36*
X202653512Y-120103927D02*
G01*
X202802812Y-120133624D01*
X202966784Y-120201544D01*
X203114354Y-120300147D01*
X203239853Y-120425646D01*
X203338456Y-120573216D01*
X203406376Y-120737188D01*
X203441000Y-120911259D01*
X203441000Y-121088741D01*
X203406376Y-121262812D01*
X203338456Y-121426784D01*
X203239853Y-121574354D01*
X203114354Y-121699853D01*
X202966784Y-121798456D01*
X202802812Y-121866376D01*
X202653512Y-121896073D01*
X202628742Y-121901000D01*
X202451258Y-121901000D01*
X202426488Y-121896073D01*
X202277188Y-121866376D01*
X202113216Y-121798456D01*
X201965646Y-121699853D01*
X201840147Y-121574354D01*
X201741544Y-121426784D01*
X201673624Y-121262812D01*
X201639000Y-121088741D01*
X201639000Y-120911259D01*
X201673624Y-120737188D01*
X201741544Y-120573216D01*
X201840147Y-120425646D01*
X201965646Y-120300147D01*
X202113216Y-120201544D01*
X202277188Y-120133624D01*
X202426488Y-120103927D01*
X202451258Y-120099000D01*
X202628742Y-120099000D01*
X202653512Y-120103927D01*
G37*
G36*
X200901000Y-121901000D02*
G01*
X199099000Y-121901000D01*
X199099000Y-120099000D01*
X200901000Y-120099000D01*
X200901000Y-121901000D01*
G37*
G36*
X200901000Y-118901000D02*
G01*
X199099000Y-118901000D01*
X199099000Y-117099000D01*
X200901000Y-117099000D01*
X200901000Y-118901000D01*
G37*
G36*
X202653512Y-117103927D02*
G01*
X202802812Y-117133624D01*
X202966784Y-117201544D01*
X203114354Y-117300147D01*
X203239853Y-117425646D01*
X203338456Y-117573216D01*
X203406376Y-117737188D01*
X203441000Y-117911259D01*
X203441000Y-118088741D01*
X203406376Y-118262812D01*
X203338456Y-118426784D01*
X203239853Y-118574354D01*
X203114354Y-118699853D01*
X202966784Y-118798456D01*
X202802812Y-118866376D01*
X202653512Y-118896073D01*
X202628742Y-118901000D01*
X202451258Y-118901000D01*
X202426488Y-118896073D01*
X202277188Y-118866376D01*
X202113216Y-118798456D01*
X201965646Y-118699853D01*
X201840147Y-118574354D01*
X201741544Y-118426784D01*
X201673624Y-118262812D01*
X201639000Y-118088741D01*
X201639000Y-117911259D01*
X201673624Y-117737188D01*
X201741544Y-117573216D01*
X201840147Y-117425646D01*
X201965646Y-117300147D01*
X202113216Y-117201544D01*
X202277188Y-117133624D01*
X202426488Y-117103927D01*
X202451258Y-117099000D01*
X202628742Y-117099000D01*
X202653512Y-117103927D01*
G37*
G36*
X205193512Y-117103927D02*
G01*
X205342812Y-117133624D01*
X205506784Y-117201544D01*
X205654354Y-117300147D01*
X205779853Y-117425646D01*
X205878456Y-117573216D01*
X205946376Y-117737188D01*
X205981000Y-117911259D01*
X205981000Y-118088741D01*
X205946376Y-118262812D01*
X205878456Y-118426784D01*
X205779853Y-118574354D01*
X205654354Y-118699853D01*
X205506784Y-118798456D01*
X205342812Y-118866376D01*
X205193512Y-118896073D01*
X205168742Y-118901000D01*
X204991258Y-118901000D01*
X204966488Y-118896073D01*
X204817188Y-118866376D01*
X204653216Y-118798456D01*
X204505646Y-118699853D01*
X204380147Y-118574354D01*
X204281544Y-118426784D01*
X204213624Y-118262812D01*
X204179000Y-118088741D01*
X204179000Y-117911259D01*
X204213624Y-117737188D01*
X204281544Y-117573216D01*
X204380147Y-117425646D01*
X204505646Y-117300147D01*
X204653216Y-117201544D01*
X204817188Y-117133624D01*
X204966488Y-117103927D01*
X204991258Y-117099000D01*
X205168742Y-117099000D01*
X205193512Y-117103927D01*
G37*
G36*
X207733512Y-117103927D02*
G01*
X207882812Y-117133624D01*
X208046784Y-117201544D01*
X208194354Y-117300147D01*
X208319853Y-117425646D01*
X208418456Y-117573216D01*
X208486376Y-117737188D01*
X208521000Y-117911259D01*
X208521000Y-118088741D01*
X208486376Y-118262812D01*
X208418456Y-118426784D01*
X208319853Y-118574354D01*
X208194354Y-118699853D01*
X208046784Y-118798456D01*
X207882812Y-118866376D01*
X207733512Y-118896073D01*
X207708742Y-118901000D01*
X207531258Y-118901000D01*
X207506488Y-118896073D01*
X207357188Y-118866376D01*
X207193216Y-118798456D01*
X207045646Y-118699853D01*
X206920147Y-118574354D01*
X206821544Y-118426784D01*
X206753624Y-118262812D01*
X206719000Y-118088741D01*
X206719000Y-117911259D01*
X206753624Y-117737188D01*
X206821544Y-117573216D01*
X206920147Y-117425646D01*
X207045646Y-117300147D01*
X207193216Y-117201544D01*
X207357188Y-117133624D01*
X207506488Y-117103927D01*
X207531258Y-117099000D01*
X207708742Y-117099000D01*
X207733512Y-117103927D01*
G37*
G36*
X205733512Y-94103927D02*
G01*
X205882812Y-94133624D01*
X206046784Y-94201544D01*
X206194354Y-94300147D01*
X206319853Y-94425646D01*
X206418456Y-94573216D01*
X206486376Y-94737188D01*
X206521000Y-94911259D01*
X206521000Y-95088741D01*
X206486376Y-95262812D01*
X206418456Y-95426784D01*
X206319853Y-95574354D01*
X206194354Y-95699853D01*
X206046784Y-95798456D01*
X205882812Y-95866376D01*
X205733512Y-95896073D01*
X205708742Y-95901000D01*
X205531258Y-95901000D01*
X205506488Y-95896073D01*
X205357188Y-95866376D01*
X205193216Y-95798456D01*
X205045646Y-95699853D01*
X204920147Y-95574354D01*
X204821544Y-95426784D01*
X204753624Y-95262812D01*
X204719000Y-95088741D01*
X204719000Y-94911259D01*
X204753624Y-94737188D01*
X204821544Y-94573216D01*
X204920147Y-94425646D01*
X205045646Y-94300147D01*
X205193216Y-94201544D01*
X205357188Y-94133624D01*
X205506488Y-94103927D01*
X205531258Y-94099000D01*
X205708742Y-94099000D01*
X205733512Y-94103927D01*
G37*
G36*
X210813512Y-94103927D02*
G01*
X210962812Y-94133624D01*
X211126784Y-94201544D01*
X211274354Y-94300147D01*
X211399853Y-94425646D01*
X211498456Y-94573216D01*
X211566376Y-94737188D01*
X211601000Y-94911259D01*
X211601000Y-95088741D01*
X211566376Y-95262812D01*
X211498456Y-95426784D01*
X211399853Y-95574354D01*
X211274354Y-95699853D01*
X211126784Y-95798456D01*
X210962812Y-95866376D01*
X210813512Y-95896073D01*
X210788742Y-95901000D01*
X210611258Y-95901000D01*
X210586488Y-95896073D01*
X210437188Y-95866376D01*
X210273216Y-95798456D01*
X210125646Y-95699853D01*
X210000147Y-95574354D01*
X209901544Y-95426784D01*
X209833624Y-95262812D01*
X209799000Y-95088741D01*
X209799000Y-94911259D01*
X209833624Y-94737188D01*
X209901544Y-94573216D01*
X210000147Y-94425646D01*
X210125646Y-94300147D01*
X210273216Y-94201544D01*
X210437188Y-94133624D01*
X210586488Y-94103927D01*
X210611258Y-94099000D01*
X210788742Y-94099000D01*
X210813512Y-94103927D01*
G37*
G36*
X203193512Y-94103927D02*
G01*
X203342812Y-94133624D01*
X203506784Y-94201544D01*
X203654354Y-94300147D01*
X203779853Y-94425646D01*
X203878456Y-94573216D01*
X203946376Y-94737188D01*
X203981000Y-94911259D01*
X203981000Y-95088741D01*
X203946376Y-95262812D01*
X203878456Y-95426784D01*
X203779853Y-95574354D01*
X203654354Y-95699853D01*
X203506784Y-95798456D01*
X203342812Y-95866376D01*
X203193512Y-95896073D01*
X203168742Y-95901000D01*
X202991258Y-95901000D01*
X202966488Y-95896073D01*
X202817188Y-95866376D01*
X202653216Y-95798456D01*
X202505646Y-95699853D01*
X202380147Y-95574354D01*
X202281544Y-95426784D01*
X202213624Y-95262812D01*
X202179000Y-95088741D01*
X202179000Y-94911259D01*
X202213624Y-94737188D01*
X202281544Y-94573216D01*
X202380147Y-94425646D01*
X202505646Y-94300147D01*
X202653216Y-94201544D01*
X202817188Y-94133624D01*
X202966488Y-94103927D01*
X202991258Y-94099000D01*
X203168742Y-94099000D01*
X203193512Y-94103927D01*
G37*
G36*
X200653512Y-94103927D02*
G01*
X200802812Y-94133624D01*
X200966784Y-94201544D01*
X201114354Y-94300147D01*
X201239853Y-94425646D01*
X201338456Y-94573216D01*
X201406376Y-94737188D01*
X201441000Y-94911259D01*
X201441000Y-95088741D01*
X201406376Y-95262812D01*
X201338456Y-95426784D01*
X201239853Y-95574354D01*
X201114354Y-95699853D01*
X200966784Y-95798456D01*
X200802812Y-95866376D01*
X200653512Y-95896073D01*
X200628742Y-95901000D01*
X200451258Y-95901000D01*
X200426488Y-95896073D01*
X200277188Y-95866376D01*
X200113216Y-95798456D01*
X199965646Y-95699853D01*
X199840147Y-95574354D01*
X199741544Y-95426784D01*
X199673624Y-95262812D01*
X199639000Y-95088741D01*
X199639000Y-94911259D01*
X199673624Y-94737188D01*
X199741544Y-94573216D01*
X199840147Y-94425646D01*
X199965646Y-94300147D01*
X200113216Y-94201544D01*
X200277188Y-94133624D01*
X200426488Y-94103927D01*
X200451258Y-94099000D01*
X200628742Y-94099000D01*
X200653512Y-94103927D01*
G37*
G36*
X198901000Y-95901000D02*
G01*
X197099000Y-95901000D01*
X197099000Y-94099000D01*
X198901000Y-94099000D01*
X198901000Y-95901000D01*
G37*
G36*
X208273512Y-94103927D02*
G01*
X208422812Y-94133624D01*
X208586784Y-94201544D01*
X208734354Y-94300147D01*
X208859853Y-94425646D01*
X208958456Y-94573216D01*
X209026376Y-94737188D01*
X209061000Y-94911259D01*
X209061000Y-95088741D01*
X209026376Y-95262812D01*
X208958456Y-95426784D01*
X208859853Y-95574354D01*
X208734354Y-95699853D01*
X208586784Y-95798456D01*
X208422812Y-95866376D01*
X208273512Y-95896073D01*
X208248742Y-95901000D01*
X208071258Y-95901000D01*
X208046488Y-95896073D01*
X207897188Y-95866376D01*
X207733216Y-95798456D01*
X207585646Y-95699853D01*
X207460147Y-95574354D01*
X207361544Y-95426784D01*
X207293624Y-95262812D01*
X207259000Y-95088741D01*
X207259000Y-94911259D01*
X207293624Y-94737188D01*
X207361544Y-94573216D01*
X207460147Y-94425646D01*
X207585646Y-94300147D01*
X207733216Y-94201544D01*
X207897188Y-94133624D01*
X208046488Y-94103927D01*
X208071258Y-94099000D01*
X208248742Y-94099000D01*
X208273512Y-94103927D01*
G37*
G36*
X205733512Y-84103927D02*
G01*
X205882812Y-84133624D01*
X206046784Y-84201544D01*
X206194354Y-84300147D01*
X206319853Y-84425646D01*
X206418456Y-84573216D01*
X206486376Y-84737188D01*
X206521000Y-84911259D01*
X206521000Y-85088741D01*
X206486376Y-85262812D01*
X206418456Y-85426784D01*
X206319853Y-85574354D01*
X206194354Y-85699853D01*
X206046784Y-85798456D01*
X205882812Y-85866376D01*
X205733512Y-85896073D01*
X205708742Y-85901000D01*
X205531258Y-85901000D01*
X205506488Y-85896073D01*
X205357188Y-85866376D01*
X205193216Y-85798456D01*
X205045646Y-85699853D01*
X204920147Y-85574354D01*
X204821544Y-85426784D01*
X204753624Y-85262812D01*
X204719000Y-85088741D01*
X204719000Y-84911259D01*
X204753624Y-84737188D01*
X204821544Y-84573216D01*
X204920147Y-84425646D01*
X205045646Y-84300147D01*
X205193216Y-84201544D01*
X205357188Y-84133624D01*
X205506488Y-84103927D01*
X205531258Y-84099000D01*
X205708742Y-84099000D01*
X205733512Y-84103927D01*
G37*
G36*
X208273512Y-84103927D02*
G01*
X208422812Y-84133624D01*
X208586784Y-84201544D01*
X208734354Y-84300147D01*
X208859853Y-84425646D01*
X208958456Y-84573216D01*
X209026376Y-84737188D01*
X209061000Y-84911259D01*
X209061000Y-85088741D01*
X209026376Y-85262812D01*
X208958456Y-85426784D01*
X208859853Y-85574354D01*
X208734354Y-85699853D01*
X208586784Y-85798456D01*
X208422812Y-85866376D01*
X208273512Y-85896073D01*
X208248742Y-85901000D01*
X208071258Y-85901000D01*
X208046488Y-85896073D01*
X207897188Y-85866376D01*
X207733216Y-85798456D01*
X207585646Y-85699853D01*
X207460147Y-85574354D01*
X207361544Y-85426784D01*
X207293624Y-85262812D01*
X207259000Y-85088741D01*
X207259000Y-84911259D01*
X207293624Y-84737188D01*
X207361544Y-84573216D01*
X207460147Y-84425646D01*
X207585646Y-84300147D01*
X207733216Y-84201544D01*
X207897188Y-84133624D01*
X208046488Y-84103927D01*
X208071258Y-84099000D01*
X208248742Y-84099000D01*
X208273512Y-84103927D01*
G37*
G36*
X198901000Y-85901000D02*
G01*
X197099000Y-85901000D01*
X197099000Y-84099000D01*
X198901000Y-84099000D01*
X198901000Y-85901000D01*
G37*
G36*
X200653512Y-84103927D02*
G01*
X200802812Y-84133624D01*
X200966784Y-84201544D01*
X201114354Y-84300147D01*
X201239853Y-84425646D01*
X201338456Y-84573216D01*
X201406376Y-84737188D01*
X201441000Y-84911259D01*
X201441000Y-85088741D01*
X201406376Y-85262812D01*
X201338456Y-85426784D01*
X201239853Y-85574354D01*
X201114354Y-85699853D01*
X200966784Y-85798456D01*
X200802812Y-85866376D01*
X200653512Y-85896073D01*
X200628742Y-85901000D01*
X200451258Y-85901000D01*
X200426488Y-85896073D01*
X200277188Y-85866376D01*
X200113216Y-85798456D01*
X199965646Y-85699853D01*
X199840147Y-85574354D01*
X199741544Y-85426784D01*
X199673624Y-85262812D01*
X199639000Y-85088741D01*
X199639000Y-84911259D01*
X199673624Y-84737188D01*
X199741544Y-84573216D01*
X199840147Y-84425646D01*
X199965646Y-84300147D01*
X200113216Y-84201544D01*
X200277188Y-84133624D01*
X200426488Y-84103927D01*
X200451258Y-84099000D01*
X200628742Y-84099000D01*
X200653512Y-84103927D01*
G37*
G36*
X210813512Y-84103927D02*
G01*
X210962812Y-84133624D01*
X211126784Y-84201544D01*
X211274354Y-84300147D01*
X211399853Y-84425646D01*
X211498456Y-84573216D01*
X211566376Y-84737188D01*
X211601000Y-84911259D01*
X211601000Y-85088741D01*
X211566376Y-85262812D01*
X211498456Y-85426784D01*
X211399853Y-85574354D01*
X211274354Y-85699853D01*
X211126784Y-85798456D01*
X210962812Y-85866376D01*
X210813512Y-85896073D01*
X210788742Y-85901000D01*
X210611258Y-85901000D01*
X210586488Y-85896073D01*
X210437188Y-85866376D01*
X210273216Y-85798456D01*
X210125646Y-85699853D01*
X210000147Y-85574354D01*
X209901544Y-85426784D01*
X209833624Y-85262812D01*
X209799000Y-85088741D01*
X209799000Y-84911259D01*
X209833624Y-84737188D01*
X209901544Y-84573216D01*
X210000147Y-84425646D01*
X210125646Y-84300147D01*
X210273216Y-84201544D01*
X210437188Y-84133624D01*
X210586488Y-84103927D01*
X210611258Y-84099000D01*
X210788742Y-84099000D01*
X210813512Y-84103927D01*
G37*
G36*
X203193512Y-84103927D02*
G01*
X203342812Y-84133624D01*
X203506784Y-84201544D01*
X203654354Y-84300147D01*
X203779853Y-84425646D01*
X203878456Y-84573216D01*
X203946376Y-84737188D01*
X203981000Y-84911259D01*
X203981000Y-85088741D01*
X203946376Y-85262812D01*
X203878456Y-85426784D01*
X203779853Y-85574354D01*
X203654354Y-85699853D01*
X203506784Y-85798456D01*
X203342812Y-85866376D01*
X203193512Y-85896073D01*
X203168742Y-85901000D01*
X202991258Y-85901000D01*
X202966488Y-85896073D01*
X202817188Y-85866376D01*
X202653216Y-85798456D01*
X202505646Y-85699853D01*
X202380147Y-85574354D01*
X202281544Y-85426784D01*
X202213624Y-85262812D01*
X202179000Y-85088741D01*
X202179000Y-84911259D01*
X202213624Y-84737188D01*
X202281544Y-84573216D01*
X202380147Y-84425646D01*
X202505646Y-84300147D01*
X202653216Y-84201544D01*
X202817188Y-84133624D01*
X202966488Y-84103927D01*
X202991258Y-84099000D01*
X203168742Y-84099000D01*
X203193512Y-84103927D01*
G37*
G36*
X205193512Y-75303927D02*
G01*
X205342812Y-75333624D01*
X205506784Y-75401544D01*
X205654354Y-75500147D01*
X205779853Y-75625646D01*
X205878456Y-75773216D01*
X205946376Y-75937188D01*
X205981000Y-76111259D01*
X205981000Y-76288741D01*
X205946376Y-76462812D01*
X205878456Y-76626784D01*
X205779853Y-76774354D01*
X205654354Y-76899853D01*
X205506784Y-76998456D01*
X205342812Y-77066376D01*
X205193512Y-77096073D01*
X205168742Y-77101000D01*
X204991258Y-77101000D01*
X204966488Y-77096073D01*
X204817188Y-77066376D01*
X204653216Y-76998456D01*
X204505646Y-76899853D01*
X204380147Y-76774354D01*
X204281544Y-76626784D01*
X204213624Y-76462812D01*
X204179000Y-76288741D01*
X204179000Y-76111259D01*
X204213624Y-75937188D01*
X204281544Y-75773216D01*
X204380147Y-75625646D01*
X204505646Y-75500147D01*
X204653216Y-75401544D01*
X204817188Y-75333624D01*
X204966488Y-75303927D01*
X204991258Y-75299000D01*
X205168742Y-75299000D01*
X205193512Y-75303927D01*
G37*
G36*
X160491000Y-77101000D02*
G01*
X158689000Y-77101000D01*
X158689000Y-75299000D01*
X160491000Y-75299000D01*
X160491000Y-77101000D01*
G37*
G36*
X174943512Y-75303927D02*
G01*
X175092812Y-75333624D01*
X175256784Y-75401544D01*
X175404354Y-75500147D01*
X175529853Y-75625646D01*
X175628456Y-75773216D01*
X175696376Y-75937188D01*
X175731000Y-76111259D01*
X175731000Y-76288741D01*
X175696376Y-76462812D01*
X175628456Y-76626784D01*
X175529853Y-76774354D01*
X175404354Y-76899853D01*
X175256784Y-76998456D01*
X175092812Y-77066376D01*
X174943512Y-77096073D01*
X174918742Y-77101000D01*
X174741258Y-77101000D01*
X174716488Y-77096073D01*
X174567188Y-77066376D01*
X174403216Y-76998456D01*
X174255646Y-76899853D01*
X174130147Y-76774354D01*
X174031544Y-76626784D01*
X173963624Y-76462812D01*
X173929000Y-76288741D01*
X173929000Y-76111259D01*
X173963624Y-75937188D01*
X174031544Y-75773216D01*
X174130147Y-75625646D01*
X174255646Y-75500147D01*
X174403216Y-75401544D01*
X174567188Y-75333624D01*
X174716488Y-75303927D01*
X174741258Y-75299000D01*
X174918742Y-75299000D01*
X174943512Y-75303927D01*
G37*
G36*
X177483512Y-75303927D02*
G01*
X177632812Y-75333624D01*
X177796784Y-75401544D01*
X177944354Y-75500147D01*
X178069853Y-75625646D01*
X178168456Y-75773216D01*
X178236376Y-75937188D01*
X178271000Y-76111259D01*
X178271000Y-76288741D01*
X178236376Y-76462812D01*
X178168456Y-76626784D01*
X178069853Y-76774354D01*
X177944354Y-76899853D01*
X177796784Y-76998456D01*
X177632812Y-77066376D01*
X177483512Y-77096073D01*
X177458742Y-77101000D01*
X177281258Y-77101000D01*
X177256488Y-77096073D01*
X177107188Y-77066376D01*
X176943216Y-76998456D01*
X176795646Y-76899853D01*
X176670147Y-76774354D01*
X176571544Y-76626784D01*
X176503624Y-76462812D01*
X176469000Y-76288741D01*
X176469000Y-76111259D01*
X176503624Y-75937188D01*
X176571544Y-75773216D01*
X176670147Y-75625646D01*
X176795646Y-75500147D01*
X176943216Y-75401544D01*
X177107188Y-75333624D01*
X177256488Y-75303927D01*
X177281258Y-75299000D01*
X177458742Y-75299000D01*
X177483512Y-75303927D01*
G37*
G36*
X200901000Y-77101000D02*
G01*
X199099000Y-77101000D01*
X199099000Y-75299000D01*
X200901000Y-75299000D01*
X200901000Y-77101000D01*
G37*
G36*
X202653512Y-75303927D02*
G01*
X202802812Y-75333624D01*
X202966784Y-75401544D01*
X203114354Y-75500147D01*
X203239853Y-75625646D01*
X203338456Y-75773216D01*
X203406376Y-75937188D01*
X203441000Y-76111259D01*
X203441000Y-76288741D01*
X203406376Y-76462812D01*
X203338456Y-76626784D01*
X203239853Y-76774354D01*
X203114354Y-76899853D01*
X202966784Y-76998456D01*
X202802812Y-77066376D01*
X202653512Y-77096073D01*
X202628742Y-77101000D01*
X202451258Y-77101000D01*
X202426488Y-77096073D01*
X202277188Y-77066376D01*
X202113216Y-76998456D01*
X201965646Y-76899853D01*
X201840147Y-76774354D01*
X201741544Y-76626784D01*
X201673624Y-76462812D01*
X201639000Y-76288741D01*
X201639000Y-76111259D01*
X201673624Y-75937188D01*
X201741544Y-75773216D01*
X201840147Y-75625646D01*
X201965646Y-75500147D01*
X202113216Y-75401544D01*
X202277188Y-75333624D01*
X202426488Y-75303927D01*
X202451258Y-75299000D01*
X202628742Y-75299000D01*
X202653512Y-75303927D01*
G37*
G36*
X207733512Y-75303927D02*
G01*
X207882812Y-75333624D01*
X208046784Y-75401544D01*
X208194354Y-75500147D01*
X208319853Y-75625646D01*
X208418456Y-75773216D01*
X208486376Y-75937188D01*
X208521000Y-76111259D01*
X208521000Y-76288741D01*
X208486376Y-76462812D01*
X208418456Y-76626784D01*
X208319853Y-76774354D01*
X208194354Y-76899853D01*
X208046784Y-76998456D01*
X207882812Y-77066376D01*
X207733512Y-77096073D01*
X207708742Y-77101000D01*
X207531258Y-77101000D01*
X207506488Y-77096073D01*
X207357188Y-77066376D01*
X207193216Y-76998456D01*
X207045646Y-76899853D01*
X206920147Y-76774354D01*
X206821544Y-76626784D01*
X206753624Y-76462812D01*
X206719000Y-76288741D01*
X206719000Y-76111259D01*
X206753624Y-75937188D01*
X206821544Y-75773216D01*
X206920147Y-75625646D01*
X207045646Y-75500147D01*
X207193216Y-75401544D01*
X207357188Y-75333624D01*
X207506488Y-75303927D01*
X207531258Y-75299000D01*
X207708742Y-75299000D01*
X207733512Y-75303927D01*
G37*
G36*
X172403512Y-75303927D02*
G01*
X172552812Y-75333624D01*
X172716784Y-75401544D01*
X172864354Y-75500147D01*
X172989853Y-75625646D01*
X173088456Y-75773216D01*
X173156376Y-75937188D01*
X173191000Y-76111259D01*
X173191000Y-76288741D01*
X173156376Y-76462812D01*
X173088456Y-76626784D01*
X172989853Y-76774354D01*
X172864354Y-76899853D01*
X172716784Y-76998456D01*
X172552812Y-77066376D01*
X172403512Y-77096073D01*
X172378742Y-77101000D01*
X172201258Y-77101000D01*
X172176488Y-77096073D01*
X172027188Y-77066376D01*
X171863216Y-76998456D01*
X171715646Y-76899853D01*
X171590147Y-76774354D01*
X171491544Y-76626784D01*
X171423624Y-76462812D01*
X171389000Y-76288741D01*
X171389000Y-76111259D01*
X171423624Y-75937188D01*
X171491544Y-75773216D01*
X171590147Y-75625646D01*
X171715646Y-75500147D01*
X171863216Y-75401544D01*
X172027188Y-75333624D01*
X172176488Y-75303927D01*
X172201258Y-75299000D01*
X172378742Y-75299000D01*
X172403512Y-75303927D01*
G37*
G36*
X169863512Y-75303927D02*
G01*
X170012812Y-75333624D01*
X170176784Y-75401544D01*
X170324354Y-75500147D01*
X170449853Y-75625646D01*
X170548456Y-75773216D01*
X170616376Y-75937188D01*
X170651000Y-76111259D01*
X170651000Y-76288741D01*
X170616376Y-76462812D01*
X170548456Y-76626784D01*
X170449853Y-76774354D01*
X170324354Y-76899853D01*
X170176784Y-76998456D01*
X170012812Y-77066376D01*
X169863512Y-77096073D01*
X169838742Y-77101000D01*
X169661258Y-77101000D01*
X169636488Y-77096073D01*
X169487188Y-77066376D01*
X169323216Y-76998456D01*
X169175646Y-76899853D01*
X169050147Y-76774354D01*
X168951544Y-76626784D01*
X168883624Y-76462812D01*
X168849000Y-76288741D01*
X168849000Y-76111259D01*
X168883624Y-75937188D01*
X168951544Y-75773216D01*
X169050147Y-75625646D01*
X169175646Y-75500147D01*
X169323216Y-75401544D01*
X169487188Y-75333624D01*
X169636488Y-75303927D01*
X169661258Y-75299000D01*
X169838742Y-75299000D01*
X169863512Y-75303927D01*
G37*
G36*
X167323512Y-75303927D02*
G01*
X167472812Y-75333624D01*
X167636784Y-75401544D01*
X167784354Y-75500147D01*
X167909853Y-75625646D01*
X168008456Y-75773216D01*
X168076376Y-75937188D01*
X168111000Y-76111259D01*
X168111000Y-76288741D01*
X168076376Y-76462812D01*
X168008456Y-76626784D01*
X167909853Y-76774354D01*
X167784354Y-76899853D01*
X167636784Y-76998456D01*
X167472812Y-77066376D01*
X167323512Y-77096073D01*
X167298742Y-77101000D01*
X167121258Y-77101000D01*
X167096488Y-77096073D01*
X166947188Y-77066376D01*
X166783216Y-76998456D01*
X166635646Y-76899853D01*
X166510147Y-76774354D01*
X166411544Y-76626784D01*
X166343624Y-76462812D01*
X166309000Y-76288741D01*
X166309000Y-76111259D01*
X166343624Y-75937188D01*
X166411544Y-75773216D01*
X166510147Y-75625646D01*
X166635646Y-75500147D01*
X166783216Y-75401544D01*
X166947188Y-75333624D01*
X167096488Y-75303927D01*
X167121258Y-75299000D01*
X167298742Y-75299000D01*
X167323512Y-75303927D01*
G37*
G36*
X164783512Y-75303927D02*
G01*
X164932812Y-75333624D01*
X165096784Y-75401544D01*
X165244354Y-75500147D01*
X165369853Y-75625646D01*
X165468456Y-75773216D01*
X165536376Y-75937188D01*
X165571000Y-76111259D01*
X165571000Y-76288741D01*
X165536376Y-76462812D01*
X165468456Y-76626784D01*
X165369853Y-76774354D01*
X165244354Y-76899853D01*
X165096784Y-76998456D01*
X164932812Y-77066376D01*
X164783512Y-77096073D01*
X164758742Y-77101000D01*
X164581258Y-77101000D01*
X164556488Y-77096073D01*
X164407188Y-77066376D01*
X164243216Y-76998456D01*
X164095646Y-76899853D01*
X163970147Y-76774354D01*
X163871544Y-76626784D01*
X163803624Y-76462812D01*
X163769000Y-76288741D01*
X163769000Y-76111259D01*
X163803624Y-75937188D01*
X163871544Y-75773216D01*
X163970147Y-75625646D01*
X164095646Y-75500147D01*
X164243216Y-75401544D01*
X164407188Y-75333624D01*
X164556488Y-75303927D01*
X164581258Y-75299000D01*
X164758742Y-75299000D01*
X164783512Y-75303927D01*
G37*
G36*
X162243512Y-75303927D02*
G01*
X162392812Y-75333624D01*
X162556784Y-75401544D01*
X162704354Y-75500147D01*
X162829853Y-75625646D01*
X162928456Y-75773216D01*
X162996376Y-75937188D01*
X163031000Y-76111259D01*
X163031000Y-76288741D01*
X162996376Y-76462812D01*
X162928456Y-76626784D01*
X162829853Y-76774354D01*
X162704354Y-76899853D01*
X162556784Y-76998456D01*
X162392812Y-77066376D01*
X162243512Y-77096073D01*
X162218742Y-77101000D01*
X162041258Y-77101000D01*
X162016488Y-77096073D01*
X161867188Y-77066376D01*
X161703216Y-76998456D01*
X161555646Y-76899853D01*
X161430147Y-76774354D01*
X161331544Y-76626784D01*
X161263624Y-76462812D01*
X161229000Y-76288741D01*
X161229000Y-76111259D01*
X161263624Y-75937188D01*
X161331544Y-75773216D01*
X161430147Y-75625646D01*
X161555646Y-75500147D01*
X161703216Y-75401544D01*
X161867188Y-75333624D01*
X162016488Y-75303927D01*
X162041258Y-75299000D01*
X162218742Y-75299000D01*
X162243512Y-75303927D01*
G37*
M02*
